<svg xmlns="http://www.w3.org/2000/svg" viewBox="0 0 24 24" fill="none">
  <g
    stroke="currentColor"
    stroke-width="1.219"
    stroke-linecap="round"
    stroke-linejoin="round"
  >
    <path d="M7.876 22.5a2.242 2.242 0 0 0 2.25-2.25v-4.5M16.125 22.5a2.242 2.242 0 0 1-2.25-2.25v-4.5M14.25 15.75h1.5A2.24 2.24 0 0 1 18 18v.75A2.24 2.24 0 0 0 20.25 21M9.752 15.75h-1.5A2.24 2.24 0 0 0 6.002 18v.75A2.24 2.24 0 0 1 3.752 21" />
    <path d="M10.485 6a4.875 4.875 0 0 0-4.107-2.25 4.875 4.875 0 0 0-.328 4.19 4.622 4.622 0 0 0-.797 2.56v.75a4.5 4.5 0 0 0 4.5 4.5h4.5a4.5 4.5 0 0 0 4.5-4.5v-.75a4.622 4.622 0 0 0-.797-2.56 4.874 4.874 0 0 0-.328-4.19A4.875 4.875 0 0 0 13.522 6h-3.037Z" />
  </g>
</svg>
